<?xml version="1.0" standalone="no"?>
<!DOCTYPE svg PUBLIC "-//W3C//DTD SVG 20010904//EN"
 "http://www.w3.org/TR/2001/REC-SVG-20010904/DTD/svg10.dtd">
<svg version="1.0" xmlns="http://www.w3.org/2000/svg"
 width="800.000000pt" height="800.000000pt" viewBox="0 0 800.000000 800.000000"
 preserveAspectRatio="xMidYMid meet">
<metadata>
Created by potrace 1.14, written by Peter Selinger 2001-2017
</metadata>
<g transform="translate(0.000000,800.000000) scale(0.100000,-0.100000)"
fill="#000000" stroke="none">
<path d="M40 4010 l0 -3620 3120 0 c3096 0 3192 1 3220 30 9 9 76 30 98 30 12
0 22 4 22 8 0 5 19 15 42 22 24 7 52 18 63 26 11 8 30 14 42 14 13 0 23 5 23
11 0 6 7 8 15 5 9 -3 18 1 21 9 4 8 12 15 19 15 16 0 73 29 80 41 4 5 10 7 15
4 5 -3 11 -1 15 5 3 5 15 10 26 10 10 0 19 5 19 11 0 5 14 15 30 20 17 6 30
15 30 20 0 5 12 15 28 22 33 15 34 16 100 72 29 25 59 45 67 45 8 0 15 5 15
11 0 11 25 40 35 39 3 0 5 2 5 5 -1 10 29 35 37 33 12 -4 63 44 63 59 0 8 4
12 10 8 5 -3 17 7 27 22 9 15 39 50 65 76 26 26 48 52 48 58 0 5 5 9 10 9 6 0
10 6 10 13 0 7 16 28 35 47 19 19 35 41 35 47 0 7 9 18 20 25 11 7 20 21 20
30 0 10 9 27 20 38 11 11 20 24 20 30 0 5 6 13 13 17 7 4 19 27 25 51 7 23 17
40 22 37 4 -3 11 13 15 36 4 22 13 43 21 46 8 3 14 12 14 20 0 8 8 27 19 41
10 15 24 52 31 82 8 30 18 60 24 65 6 6 11 15 11 20 1 18 27 120 35 130 3 6
12 37 19 70 7 33 17 70 22 83 5 13 9 33 9 46 0 12 3 26 7 30 4 3 8 17 10 29 2
12 14 88 28 169 l25 148 0 2575 0 2575 -669 0 -668 0 -24 -32 c-13 -17 -37
-46 -54 -64 -31 -32 -37 -39 -139 -159 -65 -76 -80 -93 -126 -143 -16 -18 -30
-35 -30 -37 0 -3 -14 -18 -31 -35 -18 -16 -28 -30 -24 -30 5 0 -5 -12 -21 -27
-24 -23 -120 -131 -159 -181 -5 -6 -23 -27 -40 -45 -16 -19 -49 -56 -72 -83
-23 -27 -51 -60 -63 -74 -12 -14 -40 -47 -63 -74 -23 -27 -52 -60 -64 -72 -13
-13 -23 -25 -23 -28 0 -3 -10 -16 -22 -28 -22 -22 -84 -93 -118 -134 -9 -11
-47 -55 -85 -99 -39 -44 -80 -91 -91 -105 -70 -82 -118 -135 -126 -138 -4 -2
-8 -10 -8 -18 0 -9 -4 -12 -10 -9 -6 3 -10 1 -10 -4 0 -11 -14 -30 -60 -80
-14 -15 -47 -54 -75 -86 -27 -32 -70 -81 -95 -109 -25 -29 -65 -76 -90 -105
-25 -29 -57 -66 -72 -83 -16 -18 -28 -36 -28 -40 0 -5 -4 -6 -10 -3 -5 3 -10
1 -10 -4 0 -6 -8 -19 -17 -29 -10 -10 -38 -42 -63 -72 -25 -30 -53 -61 -62
-68 -10 -7 -18 -17 -18 -23 0 -5 -17 -27 -37 -48 -59 -61 -125 -139 -143 -166
-9 -14 -20 -22 -23 -18 -4 3 -7 2 -7 -4 0 -5 -14 -25 -31 -44 -17 -19 -43 -49
-57 -68 -15 -19 -39 -46 -54 -61 -16 -15 -28 -30 -28 -33 0 -3 -15 -21 -32
-40 -38 -39 -109 -121 -163 -187 -20 -24 -45 -53 -56 -65 -19 -20 -26 -28
-103 -119 -22 -27 -52 -61 -66 -76 -14 -14 -47 -53 -75 -86 -27 -32 -57 -64
-65 -71 -8 -7 -12 -13 -9 -13 4 0 -12 -19 -35 -43 -22 -24 -54 -61 -71 -82
-16 -21 -47 -55 -67 -77 -21 -21 -35 -38 -33 -38 3 0 -10 -16 -28 -35 -44 -48
-59 -64 -83 -97 -11 -15 -24 -25 -27 -21 -4 3 -7 1 -7 -6 0 -7 -6 -18 -12 -25
-19 -20 -101 -115 -143 -166 -21 -25 -43 -49 -51 -53 -8 -4 -14 -12 -14 -17 0
-5 -10 -20 -22 -32 -13 -13 -48 -52 -78 -87 -30 -35 -63 -73 -73 -85 -11 -12
-35 -41 -55 -65 -21 -24 -50 -57 -65 -72 -16 -16 -26 -29 -23 -29 3 0 -15 -20
-39 -45 -25 -24 -45 -47 -45 -50 0 -6 -33 -45 -77 -89 -13 -13 -23 -26 -23
-29 0 -3 -17 -23 -37 -46 -21 -22 -49 -52 -62 -68 -13 -15 -38 -45 -57 -65
-19 -20 -34 -39 -34 -42 0 -3 -17 -23 -37 -45 -21 -21 -55 -59 -75 -83 -20
-24 -48 -55 -60 -69 -13 -14 -33 -37 -43 -50 -17 -22 -108 -128 -140 -163 -6
-6 -48 -56 -95 -111 -47 -55 -95 -109 -107 -121 -13 -12 -23 -24 -23 -28 0 -3
-14 -19 -31 -36 -18 -16 -29 -30 -26 -30 3 0 -10 -16 -29 -35 -19 -20 -34 -40
-34 -46 0 -5 -4 -7 -10 -4 -5 3 -10 2 -10 -4 0 -6 -10 -19 -22 -31 -12 -11
-19 -20 -15 -20 4 0 -11 -17 -33 -37 -22 -21 -40 -41 -40 -45 0 -4 -15 -23
-32 -41 -48 -49 -88 -100 -88 -110 0 -4 -4 -5 -10 -2 -5 3 -10 2 -10 -4 0 -5
-15 -26 -34 -47 l-33 -36 1 3041 1 3041 -667 0 -668 0 0 -3620z"/>
</g>
</svg>
